# xmcd
#
# Track frame offsets: 
#        150
#        20952
#        32679
#        53193
#        74373
#        86811
#        103618
#        126374
#        138542
#        159946
#        177531
#
# Disc length: 2609 seconds
#
# Revision: 0
# Processed by: cddbd v1.5.2PL0 Copyright (c) Steve Scherf et al.
# Submitted via: ExactAudioCopy v1.2
#
DISCID=9f0a2f0b
DTITLE=Spoonful Of Blues - Howlin' Screamin' and Cryin'
DYEAR=2017
DGENRE=Blues-Rock
TTITLE0=Rockin' At Midnite
TTITLE1=Howlin' Screamin' And Cryin'
TTITLE2=Take You Higher
TTITLE3=One Of The Boys
TTITLE4=Hard Graveled Roads
TTITLE5=See My Baby Home
TTITLE6=Let's Do It
TTITLE7=Baby Girl
TTITLE8=Oslo City Of Love
TTITLE9=Highway Fever
TTITLE10=One Way Ticket
EXTD=
EXTT0=
EXTT1=
EXTT2=
EXTT3=
EXTT4=
EXTT5=
EXTT6=
EXTT7=
EXTT8=
EXTT9=
EXTT10=
PLAYORDER=
